<svg width="76" height="76" viewBox="0 0 76 76" fill="none" xmlns="http://www.w3.org/2000/svg">
<g filter="url(#filter0_d_219_1528)">
<path d="M12 55.9995H18V49.9995H12V55.9995ZM14 51.9995H16V53.9995H14V51.9995Z" fill="#8963A7"/>
</g>
<g filter="url(#filter1_d_219_1528)">
<path d="M20 55.9995H26V49.9995H20V55.9995ZM22 51.9995H24V53.9995H22V51.9995Z" fill="#8963A7"/>
</g>
<g filter="url(#filter2_d_219_1528)">
<path d="M67 19.9995H59C58.4478 19.9995 58 20.4473 58 20.9995V24.9995C58 25.5518 58.4478 25.9995 59 25.9995H60V37.9995H51V25.9995H52C52.5522 25.9995 53 25.5518 53 24.9995V20.9995C53 20.4473 52.5522 19.9995 52 19.9995H44C43.4478 19.9995 43 20.4473 43 20.9995V24.9995C43 25.5518 43.4478 25.9995 44 25.9995H45V37.9995H36V25.9995H37C37.5522 25.9995 38 25.5518 38 24.9995V20.9995C38 20.4473 37.5522 19.9995 37 19.9995H29C28.4478 19.9995 28 20.4473 28 20.9995V24.9995C28 25.5518 28.4478 25.9995 29 25.9995H30V37.9995H29C28.4478 37.9995 28 38.4473 28 38.9995V44.9185L19.625 38.2183C19.2598 37.9258 18.7402 37.9258 18.375 38.2183L8.375 46.2183C8.35791 46.2324 8.34814 46.2515 8.33203 46.2656C8.30273 46.2935 8.27588 46.3237 8.25098 46.3555C8.19824 46.416 8.15381 46.4834 8.11816 46.5557C8.09961 46.5903 8.0835 46.626 8.06885 46.6626C8.03662 46.7725 8.01367 46.8853 8 46.9995V62.9995C8 63.5518 8.44775 63.9995 9 63.9995H67C67.5522 63.9995 68 63.5518 68 62.9995V38.9995C68 38.4473 67.5522 37.9995 67 37.9995H66V25.9995H67C67.5522 25.9995 68 25.5518 68 24.9995V20.9995C68 20.4473 67.5522 19.9995 67 19.9995ZM45 21.9995H51V23.9995H45V21.9995ZM47 25.9995H49V37.9995H47V25.9995ZM30 21.9995H36V23.9995H30V21.9995ZM32 25.9995H34V37.9995H32V25.9995ZM30 43.9995H66V45.9995H30V43.9995ZM19 40.2793L26.1489 45.9995H11.8511L19 40.2793ZM10 47.9995H28V61.9995H10V47.9995ZM66 61.9995H30V47.9995H66V61.9995ZM30 41.9995V39.9995H66V41.9995H30ZM64 37.9995H62V25.9995H64V37.9995ZM66 23.9995H60V21.9995H66V23.9995Z" fill="#8963A7"/>
</g>
<g filter="url(#filter3_d_219_1528)">
<path d="M39 55.9995V49.9995H33V55.9995H39ZM35 51.9995H37V53.9995H35V51.9995Z" fill="#8963A7"/>
</g>
<g filter="url(#filter4_d_219_1528)">
<path d="M47 49.9995H41V55.9995H47V49.9995ZM45 53.9995H43V51.9995H45V53.9995Z" fill="#8963A7"/>
</g>
<g filter="url(#filter5_d_219_1528)">
<path d="M55 49.9995H49V55.9995H55V49.9995ZM53 53.9995H51V51.9995H53V53.9995Z" fill="#8963A7"/>
</g>
<g filter="url(#filter6_d_219_1528)">
<path d="M63 49.9995H57V55.9995H63V49.9995ZM61 53.9995H59V51.9995H61V53.9995Z" fill="#8963A7"/>
</g>
<g filter="url(#filter7_d_219_1528)">
<path d="M56 14.9996V8.99963C56 7.9552 55.4565 6.98547 54.5654 6.44055C53.6743 5.89514 52.564 5.85315 51.6338 6.32873C50.8486 4.62121 48.9805 3.69055 47.1445 4.09241C45.3086 4.49426 44.0005 6.12024 44 7.99963V8.17053C43.0815 7.84582 42.063 7.98742 41.2676 8.54992C40.4727 9.11194 40 10.0255 40 10.9996V14.9996H42V10.9996C42 10.4474 42.4478 9.99963 43 9.99963C43.5522 9.99963 44 10.4474 44 10.9996H46V7.99963C46 6.89514 46.8955 5.99963 48 5.99963C49.1045 5.99963 50 6.89514 50 7.99963V8.99963H52C52 8.44739 52.4478 7.99963 53 7.99963C53.5522 7.99963 54 8.44739 54 8.99963V14.9996H56Z" fill="#8963A7"/>
</g>
<g filter="url(#filter8_d_219_1528)">
<path d="M47 12.9995H49V17.9995H47V12.9995Z" fill="#8963A7"/>
</g>
<defs>
<filter id="filter0_d_219_1528" x="4" y="45.9995" width="22" height="22" filterUnits="userSpaceOnUse" color-interpolation-filters="sRGB">
<feFlood flood-opacity="0" result="BackgroundImageFix"/>
<feColorMatrix in="SourceAlpha" type="matrix" values="0 0 0 0 0 0 0 0 0 0 0 0 0 0 0 0 0 0 127 0" result="hardAlpha"/>
<feOffset dy="4"/>
<feGaussianBlur stdDeviation="4"/>
<feComposite in2="hardAlpha" operator="out"/>
<feColorMatrix type="matrix" values="0 0 0 0 0 0 0 0 0 0 0 0 0 0 0 0 0 0 0.6 0"/>
<feBlend mode="normal" in2="BackgroundImageFix" result="effect1_dropShadow_219_1528"/>
<feBlend mode="normal" in="SourceGraphic" in2="effect1_dropShadow_219_1528" result="shape"/>
</filter>
<filter id="filter1_d_219_1528" x="12" y="45.9995" width="22" height="22" filterUnits="userSpaceOnUse" color-interpolation-filters="sRGB">
<feFlood flood-opacity="0" result="BackgroundImageFix"/>
<feColorMatrix in="SourceAlpha" type="matrix" values="0 0 0 0 0 0 0 0 0 0 0 0 0 0 0 0 0 0 127 0" result="hardAlpha"/>
<feOffset dy="4"/>
<feGaussianBlur stdDeviation="4"/>
<feComposite in2="hardAlpha" operator="out"/>
<feColorMatrix type="matrix" values="0 0 0 0 0 0 0 0 0 0 0 0 0 0 0 0 0 0 0.6 0"/>
<feBlend mode="normal" in2="BackgroundImageFix" result="effect1_dropShadow_219_1528"/>
<feBlend mode="normal" in="SourceGraphic" in2="effect1_dropShadow_219_1528" result="shape"/>
</filter>
<filter id="filter2_d_219_1528" x="0" y="15.9995" width="76" height="60" filterUnits="userSpaceOnUse" color-interpolation-filters="sRGB">
<feFlood flood-opacity="0" result="BackgroundImageFix"/>
<feColorMatrix in="SourceAlpha" type="matrix" values="0 0 0 0 0 0 0 0 0 0 0 0 0 0 0 0 0 0 127 0" result="hardAlpha"/>
<feOffset dy="4"/>
<feGaussianBlur stdDeviation="4"/>
<feComposite in2="hardAlpha" operator="out"/>
<feColorMatrix type="matrix" values="0 0 0 0 0 0 0 0 0 0 0 0 0 0 0 0 0 0 0.6 0"/>
<feBlend mode="normal" in2="BackgroundImageFix" result="effect1_dropShadow_219_1528"/>
<feBlend mode="normal" in="SourceGraphic" in2="effect1_dropShadow_219_1528" result="shape"/>
</filter>
<filter id="filter3_d_219_1528" x="25" y="45.9995" width="22" height="22" filterUnits="userSpaceOnUse" color-interpolation-filters="sRGB">
<feFlood flood-opacity="0" result="BackgroundImageFix"/>
<feColorMatrix in="SourceAlpha" type="matrix" values="0 0 0 0 0 0 0 0 0 0 0 0 0 0 0 0 0 0 127 0" result="hardAlpha"/>
<feOffset dy="4"/>
<feGaussianBlur stdDeviation="4"/>
<feComposite in2="hardAlpha" operator="out"/>
<feColorMatrix type="matrix" values="0 0 0 0 0 0 0 0 0 0 0 0 0 0 0 0 0 0 0.6 0"/>
<feBlend mode="normal" in2="BackgroundImageFix" result="effect1_dropShadow_219_1528"/>
<feBlend mode="normal" in="SourceGraphic" in2="effect1_dropShadow_219_1528" result="shape"/>
</filter>
<filter id="filter4_d_219_1528" x="33" y="45.9995" width="22" height="22" filterUnits="userSpaceOnUse" color-interpolation-filters="sRGB">
<feFlood flood-opacity="0" result="BackgroundImageFix"/>
<feColorMatrix in="SourceAlpha" type="matrix" values="0 0 0 0 0 0 0 0 0 0 0 0 0 0 0 0 0 0 127 0" result="hardAlpha"/>
<feOffset dy="4"/>
<feGaussianBlur stdDeviation="4"/>
<feComposite in2="hardAlpha" operator="out"/>
<feColorMatrix type="matrix" values="0 0 0 0 0 0 0 0 0 0 0 0 0 0 0 0 0 0 0.6 0"/>
<feBlend mode="normal" in2="BackgroundImageFix" result="effect1_dropShadow_219_1528"/>
<feBlend mode="normal" in="SourceGraphic" in2="effect1_dropShadow_219_1528" result="shape"/>
</filter>
<filter id="filter5_d_219_1528" x="41" y="45.9995" width="22" height="22" filterUnits="userSpaceOnUse" color-interpolation-filters="sRGB">
<feFlood flood-opacity="0" result="BackgroundImageFix"/>
<feColorMatrix in="SourceAlpha" type="matrix" values="0 0 0 0 0 0 0 0 0 0 0 0 0 0 0 0 0 0 127 0" result="hardAlpha"/>
<feOffset dy="4"/>
<feGaussianBlur stdDeviation="4"/>
<feComposite in2="hardAlpha" operator="out"/>
<feColorMatrix type="matrix" values="0 0 0 0 0 0 0 0 0 0 0 0 0 0 0 0 0 0 0.6 0"/>
<feBlend mode="normal" in2="BackgroundImageFix" result="effect1_dropShadow_219_1528"/>
<feBlend mode="normal" in="SourceGraphic" in2="effect1_dropShadow_219_1528" result="shape"/>
</filter>
<filter id="filter6_d_219_1528" x="49" y="45.9995" width="22" height="22" filterUnits="userSpaceOnUse" color-interpolation-filters="sRGB">
<feFlood flood-opacity="0" result="BackgroundImageFix"/>
<feColorMatrix in="SourceAlpha" type="matrix" values="0 0 0 0 0 0 0 0 0 0 0 0 0 0 0 0 0 0 127 0" result="hardAlpha"/>
<feOffset dy="4"/>
<feGaussianBlur stdDeviation="4"/>
<feComposite in2="hardAlpha" operator="out"/>
<feColorMatrix type="matrix" values="0 0 0 0 0 0 0 0 0 0 0 0 0 0 0 0 0 0 0.6 0"/>
<feBlend mode="normal" in2="BackgroundImageFix" result="effect1_dropShadow_219_1528"/>
<feBlend mode="normal" in="SourceGraphic" in2="effect1_dropShadow_219_1528" result="shape"/>
</filter>
<filter id="filter7_d_219_1528" x="32" y="-0.000488281" width="32" height="27" filterUnits="userSpaceOnUse" color-interpolation-filters="sRGB">
<feFlood flood-opacity="0" result="BackgroundImageFix"/>
<feColorMatrix in="SourceAlpha" type="matrix" values="0 0 0 0 0 0 0 0 0 0 0 0 0 0 0 0 0 0 127 0" result="hardAlpha"/>
<feOffset dy="4"/>
<feGaussianBlur stdDeviation="4"/>
<feComposite in2="hardAlpha" operator="out"/>
<feColorMatrix type="matrix" values="0 0 0 0 0 0 0 0 0 0 0 0 0 0 0 0 0 0 0.6 0"/>
<feBlend mode="normal" in2="BackgroundImageFix" result="effect1_dropShadow_219_1528"/>
<feBlend mode="normal" in="SourceGraphic" in2="effect1_dropShadow_219_1528" result="shape"/>
</filter>
<filter id="filter8_d_219_1528" x="39" y="8.99951" width="18" height="21" filterUnits="userSpaceOnUse" color-interpolation-filters="sRGB">
<feFlood flood-opacity="0" result="BackgroundImageFix"/>
<feColorMatrix in="SourceAlpha" type="matrix" values="0 0 0 0 0 0 0 0 0 0 0 0 0 0 0 0 0 0 127 0" result="hardAlpha"/>
<feOffset dy="4"/>
<feGaussianBlur stdDeviation="4"/>
<feComposite in2="hardAlpha" operator="out"/>
<feColorMatrix type="matrix" values="0 0 0 0 0 0 0 0 0 0 0 0 0 0 0 0 0 0 0.6 0"/>
<feBlend mode="normal" in2="BackgroundImageFix" result="effect1_dropShadow_219_1528"/>
<feBlend mode="normal" in="SourceGraphic" in2="effect1_dropShadow_219_1528" result="shape"/>
</filter>
</defs>
</svg>
